<svg width="17" height="16" viewBox="0 0 17 16" fill="none" xmlns="http://www.w3.org/2000/svg">
<path d="M6 10.5L8.5 8M8.5 8L11 5.5M8.5 8L6 5.5M8.5 8L11 10.5M16 8C16 8.98491 15.806 9.96018 15.4291 10.8701C15.0522 11.7801 14.4997 12.6069 13.8033 13.3033C13.1069 13.9997 12.2801 14.5522 11.3701 14.9291C10.4602 15.306 9.48491 15.5 8.5 15.5C7.51509 15.5 6.53982 15.306 5.62987 14.9291C4.71993 14.5522 3.89314 13.9997 3.1967 13.3033C2.50026 12.6069 1.94781 11.7801 1.5709 10.8701C1.19399 9.96018 1 8.98491 1 8C1 6.01088 1.79018 4.10322 3.1967 2.6967C4.60322 1.29018 6.51088 0.5 8.5 0.5C10.4891 0.5 12.3968 1.29018 13.8033 2.6967C15.2098 4.10322 16 6.01088 16 8Z" stroke="#E53F28" stroke-linecap="round" stroke-linejoin="round"/>
</svg>
