<svg width="16" height="16" viewBox="0 0 16 16" fill="none" xmlns="http://www.w3.org/2000/svg">
<path d="M2.66663 2.66666V5.99999H3.05463M3.05463 5.99999C3.49719 4.90541 4.29041 3.9886 5.30998 3.39323C6.32954 2.79787 7.51783 2.5576 8.68861 2.71009C9.85938 2.86257 10.9465 3.39919 11.7795 4.23584C12.6126 5.0725 13.1445 6.1619 13.292 7.33333M3.05463 5.99999H5.99996M13.3333 13.3333V9.99999H12.946M12.946 9.99999C12.5028 11.0939 11.7093 12.01 10.6898 12.6049C9.67038 13.1997 8.48245 13.4397 7.31203 13.2872C6.1416 13.1348 5.05476 12.5986 4.22165 11.7625C3.38854 10.9264 2.8562 9.83762 2.70796 8.66666M12.946 9.99999H9.99996" stroke="#838598" stroke-linecap="round" stroke-linejoin="round"/>
</svg>
