<svg width="20" height="20" viewBox="0 0 20 20" fill="none" xmlns="http://www.w3.org/2000/svg">
<path d="M3.33334 3.33335V7.50002H3.81834M3.81834 7.50002C4.37155 6.13179 5.36308 4.98578 6.63753 4.24157C7.91199 3.49737 9.39735 3.19703 10.8608 3.38764C12.3243 3.57824 13.6832 4.24902 14.7245 5.29483C15.7658 6.34065 16.4307 7.70241 16.615 9.16669M3.81834 7.50002H7.50001M16.6667 16.6667V12.5H16.1825M16.1825 12.5C15.6285 13.8674 14.6367 15.0126 13.3624 15.7561C12.088 16.4996 10.6031 16.7996 9.14009 16.6091C7.67706 16.4185 6.31851 15.7482 5.27712 14.7031C4.23574 13.658 3.57031 12.2971 3.38501 10.8334M16.1825 12.5H12.5" stroke="#5061D0" stroke-linecap="round" stroke-linejoin="round"/>
</svg>
