<svg width="16" height="16" viewBox="0 0 16 16" fill="none" xmlns="http://www.w3.org/2000/svg">
  <path d="M15 1V5H11" stroke="#5061D0" stroke-width="1.5" stroke-linecap="round" stroke-linejoin="round"/>
  <path d="M1 15V11H5" stroke="#5061D0" stroke-width="1.5" stroke-linecap="round" stroke-linejoin="round"/>
  <path d="M2.51 6.00001C2.95555 4.82563 3.74271 3.80267 4.77873 3.05147C5.81475 2.30027 7.05073 1.85317 8.33683 1.76071C9.62292 1.66824 10.9077 1.93382 12.0485 2.52679C13.1893 3.11977 14.1375 4.01919 14.78 5.12001M1.22 10.88C1.86249 11.9808 2.81071 12.8802 3.95154 13.4732C5.09236 14.0662 6.37711 14.3318 7.6632 14.2393C8.9493 14.1468 10.1853 13.6997 11.2213 12.9485C12.2573 12.1973 13.0445 11.1744 13.49 10" stroke="#5061D0" stroke-width="1.5" stroke-linecap="round" stroke-linejoin="round"/>
</svg> 